<svg width="15" height="15" viewBox="0 0 15 15" fill="none" xmlns="http://www.w3.org/2000/svg">
<g clip-path="url(#clip0_1_2930)">
<path fill-rule="evenodd" clip-rule="evenodd" d="M4.66678 3.91663C4.66678 2.95013 5.45028 2.16663 6.41678 2.16663H7.58345C8.54994 2.16663 9.33345 2.95013 9.33345 3.91663V4.59954C9.5159 4.53505 9.71224 4.49996 9.91678 4.49996H11.0834C12.0499 4.49996 12.8334 5.28346 12.8334 6.24996V12.0833C12.8334 13.0498 12.0499 13.8333 11.0834 13.8333H2.91678C1.95028 13.8333 1.16678 13.0498 1.16678 12.0833V8.58329C1.16678 7.6168 1.95028 6.83329 2.91678 6.83329H4.08345C4.28798 6.83329 4.48432 6.86838 4.66678 6.93287V3.91663ZM5.83345 12.6666H8.16678V3.91663C8.16678 3.59446 7.90561 3.33329 7.58345 3.33329H6.41678C6.09461 3.33329 5.83345 3.59446 5.83345 3.91663V12.6666ZM9.33345 12.6666H11.0834C11.4056 12.6666 11.6668 12.4055 11.6668 12.0833V6.24996C11.6668 5.92779 11.4056 5.66663 11.0834 5.66663H9.91678C9.59461 5.66663 9.33345 5.92779 9.33345 6.24996V12.6666ZM4.66678 12.6666V8.58329C4.66678 8.26113 4.40561 7.99996 4.08345 7.99996H2.91678C2.59461 7.99996 2.33345 8.26113 2.33345 8.58329V12.0833C2.33345 12.4055 2.59461 12.6666 2.91678 12.6666H4.66678Z" fill="#71717A"/>
</g>
<defs>
<clipPath id="clip0_1_2930">
<rect width="14.1" height="14.1" fill="white" transform="translate(0.330063 0.640076)"/>
</clipPath>
</defs>
</svg>
