<svg width="21" height="20" viewBox="0 0 21 20" fill="none" xmlns="http://www.w3.org/2000/svg">
<path d="M10.541 9.98304V9.72847V6.06667C10.541 6.04404 10.5226 6.02569 10.5 6.02569C10.4774 6.02569 10.459 6.04404 10.459 6.06667V10C10.459 10.0109 10.4634 10.0213 10.471 10.029L13.0932 12.6512L10.541 9.98304ZM10.541 9.98304L10.721 10.163M10.541 9.98304L10.721 10.163M10.721 10.163L13.1512 12.5932M10.721 10.163L13.1512 12.5932M13.1512 12.5932C13.1512 12.5932 13.1512 12.5933 13.1512 12.5933M13.1512 12.5932L13.1512 12.5933M13.1512 12.5933C13.1672 12.6092 13.1672 12.6352 13.1512 12.6512M13.1512 12.5933L13.1512 12.6512M13.1512 12.6512C13.1352 12.6672 13.1093 12.6672 13.0933 12.6512L13.1512 12.6512ZM3.74784 6.43227L3.26387 7.33679H4.28973H6.56667C6.5893 7.33679 6.60764 7.35514 6.60764 7.37776C6.60764 7.40039 6.5893 7.41874 6.56667 7.41874H3.08951L3.82345 6.12496C4.71446 4.55432 6.69078 1.89565 10.5 1.89565C15.4432 1.89565 18.6043 5.94761 18.6043 9.99996C18.6043 14.0523 15.4432 18.1043 10.5 18.1043C8.12282 18.1043 6.15698 17.1668 4.75706 15.7424C4.00544 14.9776 3.41712 14.0727 3.01571 13.0972L3.01569 13.0972C3.00711 13.0763 3.01705 13.0524 3.03799 13.0438L3.03801 13.0438C3.05892 13.0352 3.08286 13.0451 3.09147 13.0661L3.09148 13.0661C3.489 14.0319 4.07152 14.9279 4.81551 15.6849C6.20063 17.0944 8.14566 18.0223 10.5 18.0223C15.392 18.0223 18.5224 14.0132 18.5224 9.99996C18.5224 5.98671 15.392 1.9776 10.5 1.9776C6.49471 1.9776 4.53716 4.95705 3.74784 6.43227ZM2.67431 7.41874H2.63334C2.61071 7.41874 2.59237 7.40039 2.59237 7.37776V3.44443C2.59237 3.42181 2.61071 3.40346 2.63334 3.40346C2.65596 3.40346 2.67431 3.42181 2.67431 3.44443V5.82171V7.41874Z" fill="#A9A9A9" stroke="#585858" stroke-width="1.22917"/>
</svg>
