<svg width="12" height="12" viewBox="0 0 12 12" fill="none" xmlns="http://www.w3.org/2000/svg">
<mask id="path-1-outside-1_1_2312" maskUnits="userSpaceOnUse" x="0" y="-0.0800781" width="12" height="12" fill="black">
<rect fill="white" y="-0.0800781" width="12" height="12"/>
<path fill-rule="evenodd" clip-rule="evenodd" d="M11.4195 1.73933C11.6068 1.55188 11.6068 1.24797 11.4195 1.06052C11.232 0.873057 10.928 0.873057 10.7405 1.06052L6.28 5.5211L1.81941 1.06052C1.63196 0.873057 1.32804 0.873057 1.14059 1.06052C0.953135 1.24797 0.953135 1.55188 1.14059 1.73933L5.60118 6.19992L1.14059 10.6605C0.953135 10.848 0.953135 11.1519 1.14059 11.3394C1.32804 11.5268 1.63196 11.5268 1.81941 11.3394L6.28 6.87875L10.7405 11.3394C10.928 11.5268 11.232 11.5268 11.4195 11.3394C11.6068 11.1519 11.6068 10.848 11.4195 10.6605L6.95883 6.19992L11.4195 1.73933Z"/>
</mask>
<path fill-rule="evenodd" clip-rule="evenodd" d="M11.4195 1.73933C11.6068 1.55188 11.6068 1.24797 11.4195 1.06052C11.232 0.873057 10.928 0.873057 10.7405 1.06052L6.28 5.5211L1.81941 1.06052C1.63196 0.873057 1.32804 0.873057 1.14059 1.06052C0.953135 1.24797 0.953135 1.55188 1.14059 1.73933L5.60118 6.19992L1.14059 10.6605C0.953135 10.848 0.953135 11.1519 1.14059 11.3394C1.32804 11.5268 1.63196 11.5268 1.81941 11.3394L6.28 6.87875L10.7405 11.3394C10.928 11.5268 11.232 11.5268 11.4195 11.3394C11.6068 11.1519 11.6068 10.848 11.4195 10.6605L6.95883 6.19992L11.4195 1.73933Z" fill="#5E5ADB"/>
<path fill-rule="evenodd" clip-rule="evenodd" d="M11.4195 1.73933C11.6068 1.55188 11.6068 1.24797 11.4195 1.06052C11.232 0.873057 10.928 0.873057 10.7405 1.06052L6.28 5.5211L1.81941 1.06052C1.63196 0.873057 1.32804 0.873057 1.14059 1.06052C0.953135 1.24797 0.953135 1.55188 1.14059 1.73933L5.60118 6.19992L1.14059 10.6605C0.953135 10.848 0.953135 11.1519 1.14059 11.3394C1.32804 11.5268 1.63196 11.5268 1.81941 11.3394L6.28 6.87875L10.7405 11.3394C10.928 11.5268 11.232 11.5268 11.4195 11.3394C11.6068 11.1519 11.6068 10.848 11.4195 10.6605L6.95883 6.19992L11.4195 1.73933Z" stroke="#5E5ADB" stroke-width="0.4" mask="url(#path-1-outside-1_1_2312)"/>
</svg>
