<svg width="12" height="12" viewBox="0 0 12 12" fill="none" xmlns="http://www.w3.org/2000/svg">
<g opacity="0.6">
<mask id="path-1-outside-1_1_2907" maskUnits="userSpaceOnUse" x="-0.624023" y="-0.624023" width="13" height="13" fill="black">
<rect fill="white" x="-0.624023" y="-0.624023" width="13" height="13"/>
<path fill-rule="evenodd" clip-rule="evenodd" d="M11.3164 1.23636C11.5132 1.03954 11.5132 0.720423 11.3164 0.523601C11.1195 0.326769 10.8004 0.326769 10.6035 0.523601L5.91998 5.20721L1.23636 0.523601C1.03954 0.326769 0.720423 0.326769 0.523601 0.523601C0.326769 0.720423 0.326769 1.03954 0.523601 1.23636L5.20721 5.91998L0.523601 10.6035C0.326769 10.8004 0.326769 11.1195 0.523601 11.3164C0.720423 11.5132 1.03954 11.5132 1.23636 11.3164L5.91998 6.63275L10.6035 11.3164C10.8004 11.5132 11.1195 11.5132 11.3164 11.3164C11.5132 11.1195 11.5132 10.8004 11.3164 10.6035L6.63275 5.91998L11.3164 1.23636Z"/>
</mask>
<path fill-rule="evenodd" clip-rule="evenodd" d="M11.3164 1.23636C11.5132 1.03954 11.5132 0.720423 11.3164 0.523601C11.1195 0.326769 10.8004 0.326769 10.6035 0.523601L5.91998 5.20721L1.23636 0.523601C1.03954 0.326769 0.720423 0.326769 0.523601 0.523601C0.326769 0.720423 0.326769 1.03954 0.523601 1.23636L5.20721 5.91998L0.523601 10.6035C0.326769 10.8004 0.326769 11.1195 0.523601 11.3164C0.720423 11.5132 1.03954 11.5132 1.23636 11.3164L5.91998 6.63275L10.6035 11.3164C10.8004 11.5132 11.1195 11.5132 11.3164 11.3164C11.5132 11.1195 11.5132 10.8004 11.3164 10.6035L6.63275 5.91998L11.3164 1.23636Z" fill="#A0A0A0"/>
<path fill-rule="evenodd" clip-rule="evenodd" d="M11.3164 1.23636C11.5132 1.03954 11.5132 0.720423 11.3164 0.523601C11.1195 0.326769 10.8004 0.326769 10.6035 0.523601L5.91998 5.20721L1.23636 0.523601C1.03954 0.326769 0.720423 0.326769 0.523601 0.523601C0.326769 0.720423 0.326769 1.03954 0.523601 1.23636L5.20721 5.91998L0.523601 10.6035C0.326769 10.8004 0.326769 11.1195 0.523601 11.3164C0.720423 11.5132 1.03954 11.5132 1.23636 11.3164L5.91998 6.63275L10.6035 11.3164C10.8004 11.5132 11.1195 11.5132 11.3164 11.3164C11.5132 11.1195 11.5132 10.8004 11.3164 10.6035L6.63275 5.91998L11.3164 1.23636Z" stroke="#A0A0A0" stroke-width="0.42" mask="url(#path-1-outside-1_1_2907)"/>
</g>
</svg>
