<svg width="24" height="24" viewBox="0 0 24 24" fill="none" xmlns="http://www.w3.org/2000/svg">
<path d="M2.94696 12L11.6761 16.3648C11.7949 16.4241 11.8543 16.4538 11.9165 16.4655C11.9717 16.4759 12.0283 16.4759 12.0835 16.4655C12.1458 16.4538 12.2051 16.4241 12.3239 16.3648L21.0531 12M2.94696 16.5267L11.6761 20.8915C11.7949 20.9509 11.8543 20.9806 11.9165 20.9922C11.9717 21.0026 12.0283 21.0026 12.0835 20.9922C12.1458 20.9806 12.2051 20.9509 12.3239 20.8915L21.0531 16.5267M2.94696 7.47328L11.6761 3.10852C11.7949 3.04914 11.8543 3.01945 11.9165 3.00776C11.9717 2.99741 12.0283 2.99741 12.0835 3.00776C12.1458 3.01945 12.2051 3.04914 12.3239 3.10852L21.0531 7.47328L12.3239 11.838C12.2051 11.8974 12.1458 11.9271 12.0835 11.9388C12.0283 11.9492 11.9717 11.9492 11.9165 11.9388C11.8543 11.9271 11.7949 11.8974 11.6761 11.838L2.94696 7.47328Z" stroke="#667085" stroke-width="2" stroke-linecap="round" stroke-linejoin="round"/>
</svg>
