<svg width="15" height="15" viewBox="0 0 15 15" fill="none" xmlns="http://www.w3.org/2000/svg">
<g clip-path="url(#clip0_1_2933)">
<path fill-rule="evenodd" clip-rule="evenodd" d="M2.91678 3.33329C2.59461 3.33329 2.33345 3.59446 2.33345 3.91663V12.0833C2.33345 12.4055 2.59461 12.6666 2.91678 12.6666H11.0834C11.4056 12.6666 11.6668 12.4055 11.6668 12.0833V3.91663C11.6668 3.59446 11.4056 3.33329 11.0834 3.33329H2.91678ZM1.16678 3.91663C1.16678 2.95013 1.95028 2.16663 2.91678 2.16663H11.0834C12.0499 2.16663 12.8334 2.95013 12.8334 3.91663V12.0833C12.8334 13.0498 12.0499 13.8333 11.0834 13.8333H2.91678C1.95028 13.8333 1.16678 13.0498 1.16678 12.0833V3.91663ZM10.3293 5.83748C10.5571 6.06529 10.5571 6.43463 10.3293 6.66244L8.57926 8.41244C8.46986 8.52183 8.32149 8.58329 8.16678 8.58329H6.07507L4.49592 10.1624C4.26812 10.3902 3.89877 10.3902 3.67097 10.1624C3.44316 9.93463 3.44316 9.56529 3.67097 9.33748L5.42097 7.58748C5.53036 7.47808 5.67874 7.41663 5.83345 7.41663H7.92515L9.5043 5.83748C9.73211 5.60967 10.1015 5.60967 10.3293 5.83748Z" fill="#71717A"/>
</g>
<defs>
<clipPath id="clip0_1_2933">
<rect width="14.1" height="14.1" fill="white" transform="translate(0.450073 0.640076)"/>
</clipPath>
</defs>
</svg>
