<svg width="17" height="17" viewBox="0 0 17 17" fill="none" xmlns="http://www.w3.org/2000/svg">
<mask id="path-1-outside-1_1_2901" maskUnits="userSpaceOnUse" x="-0.640015" y="-0.640137" width="18" height="18" fill="black">
<rect fill="white" x="-0.640015" y="-0.640137" width="18" height="18"/>
<path fill-rule="evenodd" clip-rule="evenodd" d="M15.9892 1.58898C16.2703 1.3078 16.2703 0.851929 15.9892 0.570755C15.7079 0.289566 15.252 0.289566 14.9708 0.570755L8.27999 7.26163L1.5891 0.570755C1.30793 0.289566 0.852051 0.289566 0.570877 0.570755C0.289688 0.851929 0.289688 1.3078 0.570877 1.58898L7.26175 8.27987L0.570877 14.9707C0.289688 15.2519 0.289688 15.7078 0.570877 15.989C0.852051 16.2701 1.30793 16.2701 1.5891 15.989L8.27999 9.2981L14.9708 15.989C15.252 16.2701 15.7079 16.2701 15.9892 15.989C16.2703 15.7078 16.2703 15.2519 15.9892 14.9707L9.29823 8.27987L15.9892 1.58898Z"/>
</mask>
<path fill-rule="evenodd" clip-rule="evenodd" d="M15.9892 1.58898C16.2703 1.3078 16.2703 0.851929 15.9892 0.570755C15.7079 0.289566 15.252 0.289566 14.9708 0.570755L8.27999 7.26163L1.5891 0.570755C1.30793 0.289566 0.852051 0.289566 0.570877 0.570755C0.289688 0.851929 0.289688 1.3078 0.570877 1.58898L7.26175 8.27987L0.570877 14.9707C0.289688 15.2519 0.289688 15.7078 0.570877 15.989C0.852051 16.2701 1.30793 16.2701 1.5891 15.989L8.27999 9.2981L14.9708 15.989C15.252 16.2701 15.7079 16.2701 15.9892 15.989C16.2703 15.7078 16.2703 15.2519 15.9892 14.9707L9.29823 8.27987L15.9892 1.58898Z" fill="#414141"/>
<path fill-rule="evenodd" clip-rule="evenodd" d="M15.9892 1.58898C16.2703 1.3078 16.2703 0.851929 15.9892 0.570755C15.7079 0.289566 15.252 0.289566 14.9708 0.570755L8.27999 7.26163L1.5891 0.570755C1.30793 0.289566 0.852051 0.289566 0.570877 0.570755C0.289688 0.851929 0.289688 1.3078 0.570877 1.58898L7.26175 8.27987L0.570877 14.9707C0.289688 15.2519 0.289688 15.7078 0.570877 15.989C0.852051 16.2701 1.30793 16.2701 1.5891 15.989L8.27999 9.2981L14.9708 15.989C15.252 16.2701 15.7079 16.2701 15.9892 15.989C16.2703 15.7078 16.2703 15.2519 15.9892 14.9707L9.29823 8.27987L15.9892 1.58898Z" stroke="#414141" stroke-width="0.6" mask="url(#path-1-outside-1_1_2901)"/>
</svg>
