<svg width="15" height="15" viewBox="0 0 15 15" fill="none" xmlns="http://www.w3.org/2000/svg">
<g clip-path="url(#clip0_1_2936)">
<path fill-rule="evenodd" clip-rule="evenodd" d="M7.41653 3.3694C5.11452 3.65645 3.3332 5.62018 3.3332 7.99996C3.3332 10.5773 5.42254 12.6666 7.99987 12.6666C9.07828 12.6666 10.0713 12.3008 10.8615 11.6865L7.58739 8.41244C7.47799 8.30304 7.41653 8.15467 7.41653 7.99996V3.3694ZM8.5832 3.36989V7.12055L12.0386 5.66196C11.8522 5.34001 11.6277 5.04093 11.3695 4.77145C11.3247 4.72469 11.2789 4.67886 11.2322 4.634C11.1085 4.5152 10.9779 4.40286 10.8408 4.29764C10.1811 3.79149 9.40124 3.47295 8.5832 3.36989ZM12.4923 6.7368L9.02519 8.20033L11.6863 10.8614C12.0662 10.372 12.3461 9.81007 12.5075 9.20778C12.6135 8.81215 12.6665 8.40606 12.6665 7.99996C12.6665 7.59386 12.6135 7.18777 12.5075 6.79214C12.5026 6.77365 12.4975 6.7552 12.4923 6.7368ZM13.8332 7.99996C13.8332 11.2216 11.2215 13.8333 7.99987 13.8333C4.77821 13.8333 2.16653 11.2216 2.16653 7.99996C2.16653 4.7783 4.77821 2.16663 7.99987 2.16663C9.56748 2.16663 10.9907 2.78498 12.0388 3.79108C12.0677 3.81882 12.0963 3.84685 12.1247 3.87517C12.1656 3.91615 12.206 3.95773 12.2458 3.9999C13.23 5.04424 13.8332 6.45166 13.8332 7.99996Z" fill="#09090B"/>
</g>
<defs>
<clipPath id="clip0_1_2936">
<rect width="14.1" height="14.1" fill="white" transform="translate(0.569946 0.640076)"/>
</clipPath>
</defs>
</svg>
