<svg width="14" height="14" viewBox="0 0 14 14" fill="none" xmlns="http://www.w3.org/2000/svg">
<mask id="path-1-inside-1_1_2321" fill="white">
<path fill-rule="evenodd" clip-rule="evenodd" d="M7.66667 0.666667C7.66667 0.29848 7.36819 0 7 0C6.63181 0 6.33333 0.29848 6.33333 0.666667V6.33333H0.666667C0.29848 6.33333 0 6.63181 0 7C0 7.36819 0.29848 7.66667 0.666667 7.66667H6.33333V13.3333C6.33333 13.7015 6.63181 14 7 14C7.36819 14 7.66667 13.7015 7.66667 13.3333V7.66667H13.3333C13.7015 7.66667 14 7.36819 14 7C14 6.63181 13.7015 6.33333 13.3333 6.33333H7.66667V0.666667Z"/>
</mask>
<path fill-rule="evenodd" clip-rule="evenodd" d="M7.66667 0.666667C7.66667 0.29848 7.36819 0 7 0C6.63181 0 6.33333 0.29848 6.33333 0.666667V6.33333H0.666667C0.29848 6.33333 0 6.63181 0 7C0 7.36819 0.29848 7.66667 0.666667 7.66667H6.33333V13.3333C6.33333 13.7015 6.63181 14 7 14C7.36819 14 7.66667 13.7015 7.66667 13.3333V7.66667H13.3333C13.7015 7.66667 14 7.36819 14 7C14 6.63181 13.7015 6.33333 13.3333 6.33333H7.66667V0.666667Z" fill="#030712"/>
<path d="M6.33333 6.33333V8.20833H8.20833V6.33333H6.33333ZM6.33333 7.66667H8.20833V5.79167H6.33333V7.66667ZM7.66667 7.66667V5.79167H5.79167V7.66667H7.66667ZM7.66667 6.33333H5.79167V8.20833H7.66667V6.33333ZM9.54167 0.666667C9.54167 -0.737054 8.40372 -1.875 7 -1.875V1.875C6.33265 1.875 5.79167 1.33401 5.79167 0.666667H9.54167ZM7 -1.875C5.59628 -1.875 4.45833 -0.737054 4.45833 0.666667H8.20833C8.20833 1.33401 7.66735 1.875 7 1.875V-1.875ZM4.45833 0.666667V6.33333H8.20833V0.666667H4.45833ZM6.33333 4.45833H0.666667V8.20833H6.33333V4.45833ZM0.666667 4.45833C-0.737054 4.45833 -1.875 5.59628 -1.875 7H1.875C1.875 7.66735 1.33401 8.20833 0.666667 8.20833V4.45833ZM-1.875 7C-1.875 8.40372 -0.737054 9.54167 0.666667 9.54167V5.79167C1.33401 5.79167 1.875 6.33265 1.875 7H-1.875ZM0.666667 9.54167H6.33333V5.79167H0.666667V9.54167ZM4.45833 7.66667V13.3333H8.20833V7.66667H4.45833ZM4.45833 13.3333C4.45833 14.7369 5.59618 15.875 7 15.875V12.125C7.66745 12.125 8.20833 12.666 8.20833 13.3333H4.45833ZM7 15.875C8.40382 15.875 9.54167 14.7369 9.54167 13.3333H5.79167C5.79167 12.666 6.33256 12.125 7 12.125V15.875ZM9.54167 13.3333V7.66667H5.79167V13.3333H9.54167ZM7.66667 9.54167H13.3333V5.79167H7.66667V9.54167ZM13.3333 9.54167C14.7369 9.54167 15.875 8.40382 15.875 7H12.125C12.125 6.33256 12.666 5.79167 13.3333 5.79167V9.54167ZM15.875 7C15.875 5.59618 14.7369 4.45833 13.3333 4.45833V8.20833C12.666 8.20833 12.125 7.66745 12.125 7H15.875ZM13.3333 4.45833H7.66667V8.20833H13.3333V4.45833ZM9.54167 6.33333V0.666667H5.79167V6.33333H9.54167Z" fill="#5E5ADB" mask="url(#path-1-inside-1_1_2321)"/>
</svg>
